<svg xmlns="http://www.w3.org/2000/svg" xmlns:xlink="http://www.w3.org/1999/xlink" viewBox="-610 -10 1420 834" width="1420" height="834"><rect x="-610" y="-10" width="1420" height="834" fill="#ffffff"/><g class="wires"><g class="wire" data-id="w_5jcrm2q"><polyline points="670,250 400,250 400,160 380,160" fill="none" stroke="#1d4ed8" stroke-width="2" stroke-linejoin="round" stroke-linecap="round"/></g><g class="wire" data-id="w_qtvf3r9"><polyline points="670,230 470,230 470,280" fill="none" stroke="#dc2626" stroke-width="2" stroke-linejoin="round" stroke-linecap="round"/></g><g class="wire" data-id="w_hfgc32h"><polyline points="670,270 510,270 510,310" fill="none" stroke="#334155" stroke-width="2" stroke-linejoin="round" stroke-linecap="round"/></g><g class="wire" data-id="w_q9qtxzb"><polyline points="620,140 380,140" fill="none" stroke="#1d4ed8" stroke-width="2" stroke-linejoin="round" stroke-linecap="round"/></g><g class="wire" data-id="w_i0pr0rf"><polyline points="620,120 480,120 480,160" fill="none" stroke="#dc2626" stroke-width="2" stroke-linejoin="round" stroke-linecap="round"/></g><g class="wire" data-id="w_zkeuqvh"><polyline points="620,160 540,160 540,180" fill="none" stroke="#334155" stroke-width="2" stroke-linejoin="round" stroke-linecap="round"/></g><g class="wire" data-id="w_6gzi4z8"><polyline points="-10,90 80,90 80,140 100,140" fill="none" stroke="#1d4ed8" stroke-width="2" stroke-linejoin="round" stroke-linecap="round"/></g><g class="wire" data-id="w_87il9z7"><polyline points="-70,90 -140,90 -140,70" fill="none" stroke="#334155" stroke-width="2" stroke-linejoin="round" stroke-linecap="round"/></g><g class="wire" data-id="w_i9tusol"><polyline points="-30,160 100,160" fill="none" stroke="#1d4ed8" stroke-width="2" stroke-linejoin="round" stroke-linecap="round"/></g><g class="wire" data-id="w_lqddq63"><polyline points="-90,160 -240,160 -240,130" fill="none" stroke="#334155" stroke-width="2" stroke-linejoin="round" stroke-linecap="round"/></g><g class="wire" data-id="w_fxpvggi"><polyline points="-250,190 80,190 80,180 100,180" fill="none" stroke="#1d4ed8" stroke-width="2" stroke-linejoin="round" stroke-linecap="round"/></g><g class="wire" data-id="w_w94nvpx"><polyline points="-250,210 -150,210 -150,230" fill="none" stroke="#334155" stroke-width="2" stroke-linejoin="round" stroke-linecap="round"/></g><g class="wire" data-id="w_wuyedhv"><polyline points="-390,590 -520,590" fill="none" stroke="#334155" stroke-width="2" stroke-linejoin="round" stroke-linecap="round"/></g><g class="wire" data-id="w_73vquqz"><polyline points="-330,590 -90,590 -90,580 -70,580" fill="none" stroke="#1d4ed8" stroke-width="2" stroke-linejoin="round" stroke-linecap="round"/></g><g class="wire" data-id="w_nxvi6k6"><polyline points="-10,580 40,580 40,380 100,380" fill="none" stroke="#1d4ed8" stroke-width="2" stroke-linejoin="round" stroke-linecap="round"/></g><g class="wire" data-id="w_5jku8cp"><polyline points="-400,650 -130,650" fill="none" stroke="#1d4ed8" stroke-width="2" stroke-linejoin="round" stroke-linecap="round"/></g><g class="wire" data-id="w_vptxidd"><polyline points="-70,650 60,650 60,400 100,400" fill="none" stroke="#1d4ed8" stroke-width="2" stroke-linejoin="round" stroke-linecap="round"/></g><g class="wire" data-id="w_irza288"><polyline points="-460,650 -530,650" fill="none" stroke="#334155" stroke-width="2" stroke-linejoin="round" stroke-linecap="round"/></g><g class="wire" data-id="w_9o08ujq"><polyline points="-420,720 -180,720" fill="none" stroke="#1d4ed8" stroke-width="2" stroke-linejoin="round" stroke-linecap="round"/></g><g class="wire" data-id="w_m8gog3e"><polyline points="-120,720 80,720 80,420 100,420" fill="none" stroke="#1d4ed8" stroke-width="2" stroke-linejoin="round" stroke-linecap="round"/></g><g class="wire" data-id="w_dhhviye"><polyline points="-480,720 -530,720" fill="none" stroke="#334155" stroke-width="2" stroke-linejoin="round" stroke-linecap="round"/></g><g class="wire" data-id="w_a1bobq2"><polyline points="-440,280 -390,280 -390,400 -220,400" fill="none" stroke="#dc2626" stroke-width="2" stroke-linejoin="round" stroke-linecap="round"/></g><g class="wire" data-id="w_greejnu"><polyline points="-440,240 -340,240 -340,360 -220,360" fill="none" stroke="#16a34a" stroke-width="2" stroke-linejoin="round" stroke-linecap="round"/></g><g class="wire" data-id="w_gipm5vs"><polyline points="-440,220 -320,220 -320,310 -220,310" fill="none" stroke="#2563eb" stroke-width="2" stroke-linejoin="round" stroke-linecap="round"/></g><g class="wire" data-id="w_7cs5vn7"><polyline points="100,460 -120,460 -120,400 -160,400" fill="none" stroke="#dc2626" stroke-width="2" stroke-linejoin="round" stroke-linecap="round"/></g><g class="wire" data-id="w_4a0myvg"><polyline points="-160,360 70,360 70,240 100,240" fill="none" stroke="#16a34a" stroke-width="2" stroke-linejoin="round" stroke-linecap="round"/></g><g class="wire" data-id="w_uz7hleg"><polyline points="-160,310 50,310 50,220 100,220" fill="none" stroke="#2563eb" stroke-width="2" stroke-linejoin="round" stroke-linecap="round"/></g><g class="wire" data-id="w_9gexzw6"><polyline points="-440,260 -370,260 -370,320" fill="none" stroke="#334155" stroke-width="2" stroke-linejoin="round" stroke-linecap="round"/></g><g class="wire" data-id="w_v37d3k1"><polyline points="-420,440 -405,440 -100,440 -100,390 85,390 85,360 100,360" fill="none" stroke="#9333ea" stroke-width="2" stroke-linejoin="round" stroke-linecap="round"/></g><g class="wire" data-id="w_3bpy01k"><polyline points="-420,420 -405,420 -60,420 -60,430 85,430 85,300 100,300" fill="none" stroke="#f97316" stroke-width="2" stroke-linejoin="round" stroke-linecap="round"/></g><g class="wire" data-id="w_x2soeam"><polyline points="-420,460 -130,460 -130,500" fill="none" stroke="#dc2626" stroke-width="2" stroke-linejoin="round" stroke-linecap="round"/></g><g class="wire" data-id="w_jrpfiha"><polyline points="-420,480 -160,480 -160,530" fill="none" stroke="#334155" stroke-width="2" stroke-linejoin="round" stroke-linecap="round"/></g></g><g class="comps"><g class="comp" data-id="U1"><g transform="translate(100,60)"><rect x="40" y="0" width="200" height="460" rx="8" fill="#eef4ff" stroke="#1f2937" stroke-width="2.5"/><text x="140" y="220" font-family="Arial, Helvetica, sans-serif" font-size="18" fill="#1e3a8a" text-anchor="middle" font-weight="bold" dominant-baseline="middle">ESP32-S2</text><text x="140" y="240" font-family="Arial, Helvetica, sans-serif" font-size="9" fill="#64748b" text-anchor="middle" font-weight="normal" dominant-baseline="middle">-DevKitC-1</text><line x1="0" y1="20" x2="40" y2="20" stroke="#dc2626" stroke-width="2"/><text x="46" y="20" font-family="Arial, Helvetica, sans-serif" font-size="10" fill="#dc2626" text-anchor="start" font-weight="bold" dominant-baseline="middle">3V3</text><line x1="0" y1="40" x2="40" y2="40" stroke="#dc2626" stroke-width="2"/><text x="46" y="40" font-family="Arial, Helvetica, sans-serif" font-size="10" fill="#dc2626" text-anchor="start" font-weight="bold" dominant-baseline="middle">3V3</text><line x1="0" y1="60" x2="40" y2="60" stroke="#94a3b8" stroke-width="2"/><text x="46" y="60" font-family="Arial, Helvetica, sans-serif" font-size="10" fill="#94a3b8" text-anchor="start" font-weight="bold" dominant-baseline="middle">RST</text><line x1="0" y1="80" x2="40" y2="80" stroke="#2563eb" stroke-width="2"/><text x="46" y="80" font-family="Arial, Helvetica, sans-serif" font-size="10" fill="#2563eb" text-anchor="start" font-weight="normal" dominant-baseline="middle">GPIO4</text><line x1="0" y1="100" x2="40" y2="100" stroke="#2563eb" stroke-width="2"/><text x="46" y="100" font-family="Arial, Helvetica, sans-serif" font-size="10" fill="#2563eb" text-anchor="start" font-weight="normal" dominant-baseline="middle">GPIO5</text><line x1="0" y1="120" x2="40" y2="120" stroke="#2563eb" stroke-width="2"/><text x="46" y="120" font-family="Arial, Helvetica, sans-serif" font-size="10" fill="#2563eb" text-anchor="start" font-weight="normal" dominant-baseline="middle">GPIO6</text><line x1="0" y1="140" x2="40" y2="140" stroke="#2563eb" stroke-width="2"/><text x="46" y="140" font-family="Arial, Helvetica, sans-serif" font-size="10" fill="#2563eb" text-anchor="start" font-weight="normal" dominant-baseline="middle">GPIO7</text><line x1="0" y1="160" x2="40" y2="160" stroke="#2563eb" stroke-width="2"/><text x="46" y="160" font-family="Arial, Helvetica, sans-serif" font-size="10" fill="#2563eb" text-anchor="start" font-weight="normal" dominant-baseline="middle">GPIO15</text><line x1="0" y1="180" x2="40" y2="180" stroke="#2563eb" stroke-width="2"/><text x="46" y="180" font-family="Arial, Helvetica, sans-serif" font-size="10" fill="#2563eb" text-anchor="start" font-weight="normal" dominant-baseline="middle">GPIO16</text><line x1="0" y1="200" x2="40" y2="200" stroke="#2563eb" stroke-width="2"/><text x="46" y="200" font-family="Arial, Helvetica, sans-serif" font-size="10" fill="#2563eb" text-anchor="start" font-weight="normal" dominant-baseline="middle">GPIO17</text><line x1="0" y1="220" x2="40" y2="220" stroke="#2563eb" stroke-width="2"/><text x="46" y="220" font-family="Arial, Helvetica, sans-serif" font-size="10" fill="#2563eb" text-anchor="start" font-weight="normal" dominant-baseline="middle">GPIO18</text><line x1="0" y1="240" x2="40" y2="240" stroke="#2563eb" stroke-width="2"/><text x="46" y="240" font-family="Arial, Helvetica, sans-serif" font-size="10" fill="#2563eb" text-anchor="start" font-weight="normal" dominant-baseline="middle">GPIO8</text><line x1="0" y1="260" x2="40" y2="260" stroke="#2563eb" stroke-width="2"/><text x="46" y="260" font-family="Arial, Helvetica, sans-serif" font-size="10" fill="#2563eb" text-anchor="start" font-weight="normal" dominant-baseline="middle">GPIO3</text><line x1="0" y1="280" x2="40" y2="280" stroke="#7c3aed" stroke-width="2"/><text x="46" y="280" font-family="Arial, Helvetica, sans-serif" font-size="10" fill="#7c3aed" text-anchor="start" font-weight="normal" dominant-baseline="middle">GPIO46</text><line x1="0" y1="300" x2="40" y2="300" stroke="#2563eb" stroke-width="2"/><text x="46" y="300" font-family="Arial, Helvetica, sans-serif" font-size="10" fill="#2563eb" text-anchor="start" font-weight="normal" dominant-baseline="middle">GPIO9</text><line x1="0" y1="320" x2="40" y2="320" stroke="#2563eb" stroke-width="2"/><text x="46" y="320" font-family="Arial, Helvetica, sans-serif" font-size="10" fill="#2563eb" text-anchor="start" font-weight="normal" dominant-baseline="middle">GPIO10</text><line x1="0" y1="340" x2="40" y2="340" stroke="#2563eb" stroke-width="2"/><text x="46" y="340" font-family="Arial, Helvetica, sans-serif" font-size="10" fill="#2563eb" text-anchor="start" font-weight="normal" dominant-baseline="middle">GPIO11</text><line x1="0" y1="360" x2="40" y2="360" stroke="#2563eb" stroke-width="2"/><text x="46" y="360" font-family="Arial, Helvetica, sans-serif" font-size="10" fill="#2563eb" text-anchor="start" font-weight="normal" dominant-baseline="middle">GPIO12</text><line x1="0" y1="380" x2="40" y2="380" stroke="#2563eb" stroke-width="2"/><text x="46" y="380" font-family="Arial, Helvetica, sans-serif" font-size="10" fill="#2563eb" text-anchor="start" font-weight="normal" dominant-baseline="middle">GPIO13</text><line x1="0" y1="400" x2="40" y2="400" stroke="#2563eb" stroke-width="2"/><text x="46" y="400" font-family="Arial, Helvetica, sans-serif" font-size="10" fill="#2563eb" text-anchor="start" font-weight="normal" dominant-baseline="middle">GPIO14</text><line x1="0" y1="420" x2="40" y2="420" stroke="#dc2626" stroke-width="2"/><text x="46" y="420" font-family="Arial, Helvetica, sans-serif" font-size="10" fill="#dc2626" text-anchor="start" font-weight="bold" dominant-baseline="middle">5V</text><line x1="0" y1="440" x2="40" y2="440" stroke="#111827" stroke-width="2"/><text x="46" y="440" font-family="Arial, Helvetica, sans-serif" font-size="10" fill="#111827" text-anchor="start" font-weight="bold" dominant-baseline="middle">GND</text><line x1="280" y1="20" x2="240" y2="20" stroke="#111827" stroke-width="2"/><text x="234" y="20" font-family="Arial, Helvetica, sans-serif" font-size="10" fill="#111827" text-anchor="end" font-weight="bold" dominant-baseline="middle">GND</text><line x1="280" y1="40" x2="240" y2="40" stroke="#2563eb" stroke-width="2"/><text x="234" y="40" font-family="Arial, Helvetica, sans-serif" font-size="10" fill="#2563eb" text-anchor="end" font-weight="normal" dominant-baseline="middle">GPIO43</text><text x="276" y="33" font-family="Arial, Helvetica, sans-serif" font-size="7" fill="#64748b" text-anchor="end" font-weight="normal" dominant-baseline="middle">TX</text><line x1="280" y1="60" x2="240" y2="60" stroke="#2563eb" stroke-width="2"/><text x="234" y="60" font-family="Arial, Helvetica, sans-serif" font-size="10" fill="#2563eb" text-anchor="end" font-weight="normal" dominant-baseline="middle">GPIO44</text><text x="276" y="53" font-family="Arial, Helvetica, sans-serif" font-size="7" fill="#64748b" text-anchor="end" font-weight="normal" dominant-baseline="middle">RX</text><line x1="280" y1="80" x2="240" y2="80" stroke="#2563eb" stroke-width="2"/><text x="234" y="80" font-family="Arial, Helvetica, sans-serif" font-size="10" fill="#2563eb" text-anchor="end" font-weight="normal" dominant-baseline="middle">GPIO1</text><line x1="280" y1="100" x2="240" y2="100" stroke="#2563eb" stroke-width="2"/><text x="234" y="100" font-family="Arial, Helvetica, sans-serif" font-size="10" fill="#2563eb" text-anchor="end" font-weight="normal" dominant-baseline="middle">GPIO2</text><line x1="280" y1="120" x2="240" y2="120" stroke="#2563eb" stroke-width="2"/><text x="234" y="120" font-family="Arial, Helvetica, sans-serif" font-size="10" fill="#2563eb" text-anchor="end" font-weight="normal" dominant-baseline="middle">GPIO42</text><line x1="280" y1="140" x2="240" y2="140" stroke="#2563eb" stroke-width="2"/><text x="234" y="140" font-family="Arial, Helvetica, sans-serif" font-size="10" fill="#2563eb" text-anchor="end" font-weight="normal" dominant-baseline="middle">GPIO41</text><line x1="280" y1="160" x2="240" y2="160" stroke="#2563eb" stroke-width="2"/><text x="234" y="160" font-family="Arial, Helvetica, sans-serif" font-size="10" fill="#2563eb" text-anchor="end" font-weight="normal" dominant-baseline="middle">GPIO40</text><line x1="280" y1="180" x2="240" y2="180" stroke="#2563eb" stroke-width="2"/><text x="234" y="180" font-family="Arial, Helvetica, sans-serif" font-size="10" fill="#2563eb" text-anchor="end" font-weight="normal" dominant-baseline="middle">GPIO39</text><line x1="280" y1="200" x2="240" y2="200" stroke="#2563eb" stroke-width="2"/><text x="234" y="200" font-family="Arial, Helvetica, sans-serif" font-size="10" fill="#2563eb" text-anchor="end" font-weight="normal" dominant-baseline="middle">GPIO38</text><line x1="280" y1="220" x2="240" y2="220" stroke="#2563eb" stroke-width="2"/><text x="234" y="220" font-family="Arial, Helvetica, sans-serif" font-size="10" fill="#2563eb" text-anchor="end" font-weight="normal" dominant-baseline="middle">GPIO37</text><line x1="280" y1="240" x2="240" y2="240" stroke="#2563eb" stroke-width="2"/><text x="234" y="240" font-family="Arial, Helvetica, sans-serif" font-size="10" fill="#2563eb" text-anchor="end" font-weight="normal" dominant-baseline="middle">GPIO36</text><line x1="280" y1="260" x2="240" y2="260" stroke="#2563eb" stroke-width="2"/><text x="234" y="260" font-family="Arial, Helvetica, sans-serif" font-size="10" fill="#2563eb" text-anchor="end" font-weight="normal" dominant-baseline="middle">GPIO35</text><line x1="280" y1="280" x2="240" y2="280" stroke="#2563eb" stroke-width="2"/><text x="234" y="280" font-family="Arial, Helvetica, sans-serif" font-size="10" fill="#2563eb" text-anchor="end" font-weight="normal" dominant-baseline="middle">GPIO0</text><line x1="280" y1="300" x2="240" y2="300" stroke="#2563eb" stroke-width="2"/><text x="234" y="300" font-family="Arial, Helvetica, sans-serif" font-size="10" fill="#2563eb" text-anchor="end" font-weight="normal" dominant-baseline="middle">GPIO45</text><line x1="280" y1="320" x2="240" y2="320" stroke="#2563eb" stroke-width="2"/><text x="234" y="320" font-family="Arial, Helvetica, sans-serif" font-size="10" fill="#2563eb" text-anchor="end" font-weight="normal" dominant-baseline="middle">GPIO34</text><line x1="280" y1="340" x2="240" y2="340" stroke="#2563eb" stroke-width="2"/><text x="234" y="340" font-family="Arial, Helvetica, sans-serif" font-size="10" fill="#2563eb" text-anchor="end" font-weight="normal" dominant-baseline="middle">GPIO33</text><line x1="280" y1="360" x2="240" y2="360" stroke="#2563eb" stroke-width="2"/><text x="234" y="360" font-family="Arial, Helvetica, sans-serif" font-size="10" fill="#2563eb" text-anchor="end" font-weight="normal" dominant-baseline="middle">GPIO21</text><line x1="280" y1="380" x2="240" y2="380" stroke="#2563eb" stroke-width="2"/><text x="234" y="380" font-family="Arial, Helvetica, sans-serif" font-size="10" fill="#2563eb" text-anchor="end" font-weight="normal" dominant-baseline="middle">GPIO20</text><line x1="280" y1="400" x2="240" y2="400" stroke="#2563eb" stroke-width="2"/><text x="234" y="400" font-family="Arial, Helvetica, sans-serif" font-size="10" fill="#2563eb" text-anchor="end" font-weight="normal" dominant-baseline="middle">GPIO19</text><line x1="280" y1="420" x2="240" y2="420" stroke="#111827" stroke-width="2"/><text x="234" y="420" font-family="Arial, Helvetica, sans-serif" font-size="10" fill="#111827" text-anchor="end" font-weight="bold" dominant-baseline="middle">GND</text><line x1="280" y1="440" x2="240" y2="440" stroke="#111827" stroke-width="2"/><text x="234" y="440" font-family="Arial, Helvetica, sans-serif" font-size="10" fill="#111827" text-anchor="end" font-weight="bold" dominant-baseline="middle">GND</text></g><text x="240" y="46" font-family="Arial, Helvetica, sans-serif" font-size="11" text-anchor="middle" dominant-baseline="middle" fill="#0f172a"><tspan font-weight="bold">ESP32-S2</tspan></text></g><g class="comp" data-id="c_05jmmmr"><g transform="translate(670,210)"><rect x="20" y="0" width="80" height="80" rx="6" fill="#f8fafc" stroke="#1f2937" stroke-width="2"/><line x1="0" y1="20" x2="20" y2="20" stroke="#1f2937" stroke-width="2"/><text x="25" y="20" font-family="Arial, Helvetica, sans-serif" font-size="9" fill="#1f2937" text-anchor="start" font-weight="normal" dominant-baseline="middle">VCC</text><line x1="0" y1="40" x2="20" y2="40" stroke="#1f2937" stroke-width="2"/><text x="25" y="40" font-family="Arial, Helvetica, sans-serif" font-size="9" fill="#1f2937" text-anchor="start" font-weight="normal" dominant-baseline="middle">DATA</text><line x1="0" y1="60" x2="20" y2="60" stroke="#1f2937" stroke-width="2"/><text x="25" y="60" font-family="Arial, Helvetica, sans-serif" font-size="9" fill="#1f2937" text-anchor="start" font-weight="normal" dominant-baseline="middle">GND</text><text x="72" y="12" font-family="Arial, Helvetica, sans-serif" font-size="10" fill="#1f2937" text-anchor="middle" font-weight="bold" dominant-baseline="middle">DHT22</text><rect x="62" y="24" width="10" height="12" rx="2" fill="none" stroke="#64748b" stroke-width="1.2"/><rect x="76" y="24" width="10" height="12" rx="2" fill="none" stroke="#64748b" stroke-width="1.2"/><rect x="62" y="42" width="10" height="12" rx="2" fill="none" stroke="#64748b" stroke-width="1.2"/><rect x="76" y="42" width="10" height="12" rx="2" fill="none" stroke="#64748b" stroke-width="1.2"/></g><text x="720" y="196" font-family="Arial, Helvetica, sans-serif" font-size="11" text-anchor="middle" dominant-baseline="middle" fill="#0f172a"><tspan font-weight="bold">DHT1</tspan></text></g><g class="comp" data-id="c_5uq38l1"><g transform="translate(620,100)"><rect x="20" y="0" width="100" height="80" rx="6" fill="#f8fafc" stroke="#1f2937" stroke-width="2"/><line x1="0" y1="20" x2="20" y2="20" stroke="#1f2937" stroke-width="2"/><text x="25" y="20" font-family="Arial, Helvetica, sans-serif" font-size="9" fill="#1f2937" text-anchor="start" font-weight="normal" dominant-baseline="middle">VCC</text><line x1="0" y1="40" x2="20" y2="40" stroke="#1f2937" stroke-width="2"/><text x="25" y="40" font-family="Arial, Helvetica, sans-serif" font-size="9" fill="#1f2937" text-anchor="start" font-weight="normal" dominant-baseline="middle">AO</text><line x1="0" y1="60" x2="20" y2="60" stroke="#1f2937" stroke-width="2"/><text x="25" y="60" font-family="Arial, Helvetica, sans-serif" font-size="9" fill="#1f2937" text-anchor="start" font-weight="normal" dominant-baseline="middle">GND</text><text x="82" y="12" font-family="Arial, Helvetica, sans-serif" font-size="10" fill="#1f2937" text-anchor="middle" font-weight="bold" dominant-baseline="middle">LDR</text><path d="M64,56 q8,-20 16,0 t16,0" fill="none" stroke="#64748b" stroke-width="2"/></g><text x="680" y="86" font-family="Arial, Helvetica, sans-serif" font-size="11" text-anchor="middle" dominant-baseline="middle" fill="#0f172a"><tspan font-weight="bold">LDR1</tspan></text></g><g class="comp" data-id="c_sz2xuk4"><g transform="translate(-310,170) rotate(90,30,30) translate(0,60) scale(1,-1)"><path d="M12,34 A18,18 0 0 1 48,34 Z" fill="#f8fafc" stroke="#1f2937" stroke-width="2" stroke-linejoin="round"/><line x1="20" y1="34" x2="20" y2="60" stroke="#1f2937" stroke-width="2"/><line x1="40" y1="34" x2="40" y2="60" stroke="#1f2937" stroke-width="2"/><text x="13" y="46" font-family="Arial, Helvetica, sans-serif" font-size="11" fill="#1f2937" text-anchor="start" font-weight="normal" dominant-baseline="middle" transform="matrix(1 0 0 -1 0 92)">+</text><path d="M22,12 Q30,6 38,12 M18,6 Q30,-2 42,6" fill="none" stroke="#64748b" stroke-width="1.5"/></g><text x="-280" y="156" font-family="Arial, Helvetica, sans-serif" font-size="11" text-anchor="middle" dominant-baseline="middle" fill="#0f172a"><tspan font-weight="bold">Buzzer</tspan><tspan fill="#64748b" font-size="10">  Passive</tspan></text></g><g class="comp" data-id="c_gtgzc2h"><g transform="translate(-390,570) rotate(180,30,20)"><line x1="0" y1="20" x2="20" y2="20" stroke="#1f2937" stroke-width="2"/><path d="M20,8 L20,32 L40,20 Z" fill="#3b82f6" fill-opacity="0.35" stroke="#1f2937" stroke-width="2" stroke-linejoin="round"/><line x1="40" y1="8" x2="40" y2="32" stroke="#1f2937" stroke-width="2"/><line x1="40" y1="20" x2="60" y2="20" stroke="#1f2937" stroke-width="2"/><path d="M32,6 L40,-2 M36,-2 L40,-2 L40,2 M40,10 L48,2 M44,2 L48,2 L48,6" fill="none" stroke="#1f2937" stroke-width="1.5"/><text x="12" y="30" font-family="Arial, Helvetica, sans-serif" font-size="10" fill="#1f2937" text-anchor="middle" font-weight="normal" dominant-baseline="middle" transform="rotate(180 12 30)">+</text></g><text x="-360" y="556" font-family="Arial, Helvetica, sans-serif" font-size="11" text-anchor="middle" dominant-baseline="middle" fill="#0f172a"><tspan font-weight="bold">LED1</tspan><tspan fill="#64748b" font-size="10">  Blue</tspan></text></g><g class="comp" data-id="c_xdu74ym"><g transform="translate(-70,60) rotate(180,30,20) translate(0,40) scale(1,-1)"><line x1="0" y1="30" x2="13" y2="30" stroke="#1f2937" stroke-width="2"/><circle cx="16" cy="30" r="3" fill="#ffffff" stroke="#1f2937" stroke-width="2"/><circle cx="44" cy="30" r="3" fill="#ffffff" stroke="#1f2937" stroke-width="2"/><line x1="47" y1="30" x2="60" y2="30" stroke="#1f2937" stroke-width="2"/><line x1="10" y1="20" x2="50" y2="20" stroke="#1f2937" stroke-width="2"/><line x1="30" y1="20" x2="30" y2="10" stroke="#1f2937" stroke-width="2"/><rect x="21" y="3" width="18" height="7" rx="2.5" fill="#16a34a" stroke="#1f2937" stroke-width="1.5"/></g><text x="-40" y="46" font-family="Arial, Helvetica, sans-serif" font-size="11" text-anchor="middle" dominant-baseline="middle" fill="#0f172a"><tspan font-weight="bold">Water</tspan><tspan fill="#64748b" font-size="10">  green · internal pull-up</tspan></text></g><g class="comp" data-id="c_yko0cfp"><g transform="translate(-90,130) rotate(180,30,20) translate(0,40) scale(1,-1)"><line x1="0" y1="30" x2="13" y2="30" stroke="#1f2937" stroke-width="2"/><circle cx="16" cy="30" r="3" fill="#ffffff" stroke="#1f2937" stroke-width="2"/><circle cx="44" cy="30" r="3" fill="#ffffff" stroke="#1f2937" stroke-width="2"/><line x1="47" y1="30" x2="60" y2="30" stroke="#1f2937" stroke-width="2"/><line x1="10" y1="20" x2="50" y2="20" stroke="#1f2937" stroke-width="2"/><line x1="30" y1="20" x2="30" y2="10" stroke="#1f2937" stroke-width="2"/><rect x="21" y="3" width="18" height="7" rx="2.5" fill="#2563eb" stroke="#1f2937" stroke-width="1.5"/></g><text x="-60" y="116" font-family="Arial, Helvetica, sans-serif" font-size="11" text-anchor="middle" dominant-baseline="middle" fill="#0f172a"><tspan font-weight="bold">Page</tspan><tspan fill="#64748b" font-size="10">  blue · internal pull-up</tspan></text></g><g class="comp" data-id="c_3z4krds"><g transform="translate(450,280) rotate(180,20,20)"><line x1="20" y1="40" x2="20" y2="16" stroke="#1f2937" stroke-width="2"/><line x1="6" y1="16" x2="34" y2="16" stroke="#dc2626" stroke-width="2.5"/><text x="20" y="7" font-family="Arial, Helvetica, sans-serif" font-size="10" fill="#dc2626" text-anchor="middle" font-weight="bold" dominant-baseline="middle" transform="rotate(180 20 7)">3V3</text></g></g><g class="comp" data-id="c_ek1uvmx"><g transform="translate(490,310)"><line x1="20" y1="0" x2="20" y2="16" stroke="#1f2937" stroke-width="2"/><line x1="6" y1="16" x2="34" y2="16" stroke="#1f2937" stroke-width="2"/><line x1="11" y1="22" x2="29" y2="22" stroke="#1f2937" stroke-width="2"/><line x1="16" y1="28" x2="24" y2="28" stroke="#1f2937" stroke-width="2"/><text x="20" y="36" font-family="Arial, Helvetica, sans-serif" font-size="8" fill="#64748b" text-anchor="middle" font-weight="normal" dominant-baseline="middle">GND</text></g></g><g class="comp" data-id="c_33aj8gk"><g transform="translate(460,160) rotate(180,20,20)"><line x1="20" y1="40" x2="20" y2="16" stroke="#1f2937" stroke-width="2"/><line x1="6" y1="16" x2="34" y2="16" stroke="#dc2626" stroke-width="2.5"/><text x="20" y="7" font-family="Arial, Helvetica, sans-serif" font-size="10" fill="#dc2626" text-anchor="middle" font-weight="bold" dominant-baseline="middle" transform="rotate(180 20 7)">3V3</text></g></g><g class="comp" data-id="c_mz07ap0"><g transform="translate(520,180)"><line x1="20" y1="0" x2="20" y2="16" stroke="#1f2937" stroke-width="2"/><line x1="6" y1="16" x2="34" y2="16" stroke="#1f2937" stroke-width="2"/><line x1="11" y1="22" x2="29" y2="22" stroke="#1f2937" stroke-width="2"/><line x1="16" y1="28" x2="24" y2="28" stroke="#1f2937" stroke-width="2"/><text x="20" y="36" font-family="Arial, Helvetica, sans-serif" font-size="8" fill="#64748b" text-anchor="middle" font-weight="normal" dominant-baseline="middle">GND</text></g></g><g class="comp" data-id="c_jb9qj91"><g transform="translate(-160,30) rotate(180,20,20)"><line x1="20" y1="0" x2="20" y2="16" stroke="#1f2937" stroke-width="2"/><line x1="6" y1="16" x2="34" y2="16" stroke="#1f2937" stroke-width="2"/><line x1="11" y1="22" x2="29" y2="22" stroke="#1f2937" stroke-width="2"/><line x1="16" y1="28" x2="24" y2="28" stroke="#1f2937" stroke-width="2"/><text x="20" y="36" font-family="Arial, Helvetica, sans-serif" font-size="8" fill="#64748b" text-anchor="middle" font-weight="normal" dominant-baseline="middle" transform="rotate(180 20 36)">GND</text></g></g><g class="comp" data-id="c_psiduih"><g transform="translate(-260,90) rotate(180,20,20)"><line x1="20" y1="0" x2="20" y2="16" stroke="#1f2937" stroke-width="2"/><line x1="6" y1="16" x2="34" y2="16" stroke="#1f2937" stroke-width="2"/><line x1="11" y1="22" x2="29" y2="22" stroke="#1f2937" stroke-width="2"/><line x1="16" y1="28" x2="24" y2="28" stroke="#1f2937" stroke-width="2"/><text x="20" y="36" font-family="Arial, Helvetica, sans-serif" font-size="8" fill="#64748b" text-anchor="middle" font-weight="normal" dominant-baseline="middle" transform="rotate(180 20 36)">GND</text></g></g><g class="comp" data-id="c_5hphu7x"><g transform="translate(-170,230)"><line x1="20" y1="0" x2="20" y2="16" stroke="#1f2937" stroke-width="2"/><line x1="6" y1="16" x2="34" y2="16" stroke="#1f2937" stroke-width="2"/><line x1="11" y1="22" x2="29" y2="22" stroke="#1f2937" stroke-width="2"/><line x1="16" y1="28" x2="24" y2="28" stroke="#1f2937" stroke-width="2"/><text x="20" y="36" font-family="Arial, Helvetica, sans-serif" font-size="8" fill="#64748b" text-anchor="middle" font-weight="normal" dominant-baseline="middle">GND</text></g></g><g class="comp" data-id="c_gmx5k8k"><g transform="translate(-460,630) rotate(180,30,20)"><line x1="0" y1="20" x2="20" y2="20" stroke="#1f2937" stroke-width="2"/><path d="M20,8 L20,32 L40,20 Z" fill="#eab308" fill-opacity="0.35" stroke="#1f2937" stroke-width="2" stroke-linejoin="round"/><line x1="40" y1="8" x2="40" y2="32" stroke="#1f2937" stroke-width="2"/><line x1="40" y1="20" x2="60" y2="20" stroke="#1f2937" stroke-width="2"/><path d="M32,6 L40,-2 M36,-2 L40,-2 L40,2 M40,10 L48,2 M44,2 L48,2 L48,6" fill="none" stroke="#1f2937" stroke-width="1.5"/><text x="12" y="30" font-family="Arial, Helvetica, sans-serif" font-size="10" fill="#1f2937" text-anchor="middle" font-weight="normal" dominant-baseline="middle" transform="rotate(180 12 30)">+</text></g><text x="-430" y="616" font-family="Arial, Helvetica, sans-serif" font-size="11" text-anchor="middle" dominant-baseline="middle" fill="#0f172a"><tspan font-weight="bold">Light</tspan><tspan fill="#64748b" font-size="10">  Yellow</tspan></text></g><g class="comp" data-id="c_fwen5qk"><g transform="translate(-480,700) rotate(180,30,20)"><line x1="0" y1="20" x2="20" y2="20" stroke="#1f2937" stroke-width="2"/><path d="M20,8 L20,32 L40,20 Z" fill="#ef4444" fill-opacity="0.35" stroke="#1f2937" stroke-width="2" stroke-linejoin="round"/><line x1="40" y1="8" x2="40" y2="32" stroke="#1f2937" stroke-width="2"/><line x1="40" y1="20" x2="60" y2="20" stroke="#1f2937" stroke-width="2"/><path d="M32,6 L40,-2 M36,-2 L40,-2 L40,2 M40,10 L48,2 M44,2 L48,2 L48,6" fill="none" stroke="#1f2937" stroke-width="1.5"/><text x="12" y="30" font-family="Arial, Helvetica, sans-serif" font-size="10" fill="#1f2937" text-anchor="middle" font-weight="normal" dominant-baseline="middle" transform="rotate(180 12 30)">+</text></g><text x="-450" y="686" font-family="Arial, Helvetica, sans-serif" font-size="11" text-anchor="middle" dominant-baseline="middle" fill="#0f172a"><tspan font-weight="bold">Comfort</tspan><tspan fill="#64748b" font-size="10">  Red</tspan></text></g><g class="comp" data-id="c_ars00sw"><g transform="translate(-560,570) rotate(90,20,20)"><line x1="20" y1="0" x2="20" y2="16" stroke="#1f2937" stroke-width="2"/><line x1="6" y1="16" x2="34" y2="16" stroke="#1f2937" stroke-width="2"/><line x1="11" y1="22" x2="29" y2="22" stroke="#1f2937" stroke-width="2"/><line x1="16" y1="28" x2="24" y2="28" stroke="#1f2937" stroke-width="2"/></g></g><g class="comp" data-id="c_2buuok6"><g transform="translate(-70,570)"><line x1="0" y1="10" x2="12" y2="10" stroke="#1f2937" stroke-width="2"/><path d="M12,10 L15,4 L21,16 L27,4 L33,16 L39,4 L45,16 L48,10" fill="none" stroke="#1f2937" stroke-width="2" stroke-linejoin="round"/><line x1="48" y1="10" x2="60" y2="10" stroke="#1f2937" stroke-width="2"/></g><text x="-40" y="556" font-family="Arial, Helvetica, sans-serif" font-size="11" text-anchor="middle" dominant-baseline="middle" fill="#0f172a"><tspan font-weight="bold">R1</tspan><tspan fill="#64748b" font-size="10">  220 Ω</tspan></text></g><g class="comp" data-id="c_ldajx5i"><g transform="translate(-130,640) rotate(180,30,10)"><line x1="0" y1="10" x2="12" y2="10" stroke="#1f2937" stroke-width="2"/><path d="M12,10 L15,4 L21,16 L27,4 L33,16 L39,4 L45,16 L48,10" fill="none" stroke="#1f2937" stroke-width="2" stroke-linejoin="round"/><line x1="48" y1="10" x2="60" y2="10" stroke="#1f2937" stroke-width="2"/></g><text x="-100" y="626" font-family="Arial, Helvetica, sans-serif" font-size="11" text-anchor="middle" dominant-baseline="middle" fill="#0f172a"><tspan font-weight="bold">R2</tspan><tspan fill="#64748b" font-size="10">  220 Ω</tspan></text></g><g class="comp" data-id="c_8t480ei"><g transform="translate(-570,630) rotate(90,20,20)"><line x1="20" y1="0" x2="20" y2="16" stroke="#1f2937" stroke-width="2"/><line x1="6" y1="16" x2="34" y2="16" stroke="#1f2937" stroke-width="2"/><line x1="11" y1="22" x2="29" y2="22" stroke="#1f2937" stroke-width="2"/><line x1="16" y1="28" x2="24" y2="28" stroke="#1f2937" stroke-width="2"/></g></g><g class="comp" data-id="c_urz7lrm"><g transform="translate(-180,710)"><line x1="0" y1="10" x2="12" y2="10" stroke="#1f2937" stroke-width="2"/><path d="M12,10 L15,4 L21,16 L27,4 L33,16 L39,4 L45,16 L48,10" fill="none" stroke="#1f2937" stroke-width="2" stroke-linejoin="round"/><line x1="48" y1="10" x2="60" y2="10" stroke="#1f2937" stroke-width="2"/></g><text x="-150" y="696" font-family="Arial, Helvetica, sans-serif" font-size="11" text-anchor="middle" dominant-baseline="middle" fill="#0f172a"><tspan font-weight="bold">R3</tspan><tspan fill="#64748b" font-size="10">  220 Ω</tspan></text></g><g class="comp" data-id="c_21ghc86"><g transform="translate(-570,700) rotate(90,20,20)"><line x1="20" y1="0" x2="20" y2="16" stroke="#1f2937" stroke-width="2"/><line x1="6" y1="16" x2="34" y2="16" stroke="#1f2937" stroke-width="2"/><line x1="11" y1="22" x2="29" y2="22" stroke="#1f2937" stroke-width="2"/><line x1="16" y1="28" x2="24" y2="28" stroke="#1f2937" stroke-width="2"/></g></g><g class="comp" data-id="c_ho230vk"><g transform="translate(-220,390) rotate(180,30,10)"><line x1="0" y1="10" x2="12" y2="10" stroke="#1f2937" stroke-width="2"/><path d="M12,10 L15,4 L21,16 L27,4 L33,16 L39,4 L45,16 L48,10" fill="none" stroke="#1f2937" stroke-width="2" stroke-linejoin="round"/><line x1="48" y1="10" x2="60" y2="10" stroke="#1f2937" stroke-width="2"/></g><text x="-190" y="376" font-family="Arial, Helvetica, sans-serif" font-size="11" text-anchor="middle" dominant-baseline="middle" fill="#0f172a"><tspan font-weight="bold">R4</tspan><tspan fill="#64748b" font-size="10">  220 Ω</tspan></text></g><g class="comp" data-id="c_sxmt5oa"><g transform="translate(-220,350) rotate(180,30,10)"><line x1="0" y1="10" x2="12" y2="10" stroke="#1f2937" stroke-width="2"/><path d="M12,10 L15,4 L21,16 L27,4 L33,16 L39,4 L45,16 L48,10" fill="none" stroke="#1f2937" stroke-width="2" stroke-linejoin="round"/><line x1="48" y1="10" x2="60" y2="10" stroke="#1f2937" stroke-width="2"/></g><text x="-190" y="336" font-family="Arial, Helvetica, sans-serif" font-size="11" text-anchor="middle" dominant-baseline="middle" fill="#0f172a"><tspan font-weight="bold">R5</tspan><tspan fill="#64748b" font-size="10">  220 Ω</tspan></text></g><g class="comp" data-id="c_sa2pcnj"><g transform="translate(-220,300) rotate(180,30,10)"><line x1="0" y1="10" x2="12" y2="10" stroke="#1f2937" stroke-width="2"/><path d="M12,10 L15,4 L21,16 L27,4 L33,16 L39,4 L45,16 L48,10" fill="none" stroke="#1f2937" stroke-width="2" stroke-linejoin="round"/><line x1="48" y1="10" x2="60" y2="10" stroke="#1f2937" stroke-width="2"/></g><text x="-190" y="286" font-family="Arial, Helvetica, sans-serif" font-size="11" text-anchor="middle" dominant-baseline="middle" fill="#0f172a"><tspan font-weight="bold">R6</tspan><tspan fill="#64748b" font-size="10">  220 Ω</tspan></text></g><g class="comp" data-id="c_1n9vxo0"><g transform="translate(-560,200) rotate(180,60,50)"><rect x="20" y="0" width="100" height="100" rx="6" fill="#f8fafc" stroke="#1f2937" stroke-width="2"/><line x1="0" y1="20" x2="20" y2="20" stroke="#1f2937" stroke-width="2"/><text x="25" y="20" font-family="Arial, Helvetica, sans-serif" font-size="9" fill="#1f2937" text-anchor="end" font-weight="normal" dominant-baseline="middle" transform="rotate(180 25 20)">R</text><line x1="0" y1="40" x2="20" y2="40" stroke="#1f2937" stroke-width="2"/><text x="25" y="40" font-family="Arial, Helvetica, sans-serif" font-size="9" fill="#1f2937" text-anchor="end" font-weight="normal" dominant-baseline="middle" transform="rotate(180 25 40)">K (−)</text><line x1="0" y1="60" x2="20" y2="60" stroke="#1f2937" stroke-width="2"/><text x="25" y="60" font-family="Arial, Helvetica, sans-serif" font-size="9" fill="#1f2937" text-anchor="end" font-weight="normal" dominant-baseline="middle" transform="rotate(180 25 60)">G</text><line x1="0" y1="80" x2="20" y2="80" stroke="#1f2937" stroke-width="2"/><text x="25" y="80" font-family="Arial, Helvetica, sans-serif" font-size="9" fill="#1f2937" text-anchor="end" font-weight="normal" dominant-baseline="middle" transform="rotate(180 25 80)">B</text><text x="82" y="12" font-family="Arial, Helvetica, sans-serif" font-size="10" fill="#1f2937" text-anchor="middle" font-weight="bold" dominant-baseline="middle" transform="rotate(180 82 12)">RGB LED</text><circle cx="70" cy="50" r="7" fill="#ef4444" fill-opacity="0.7"/><circle cx="84" cy="50" r="7" fill="#22c55e" fill-opacity="0.7"/><circle cx="77" cy="62" r="7" fill="#3b82f6" fill-opacity="0.7"/></g><text x="-500" y="186" font-family="Arial, Helvetica, sans-serif" font-size="11" text-anchor="middle" dominant-baseline="middle" fill="#0f172a"><tspan font-weight="bold">RGB1</tspan></text></g><g class="comp" data-id="c_ot8k77h"><g transform="translate(-390,320)"><line x1="20" y1="0" x2="20" y2="16" stroke="#1f2937" stroke-width="2"/><line x1="6" y1="16" x2="34" y2="16" stroke="#1f2937" stroke-width="2"/><line x1="11" y1="22" x2="29" y2="22" stroke="#1f2937" stroke-width="2"/><line x1="16" y1="28" x2="24" y2="28" stroke="#1f2937" stroke-width="2"/><text x="20" y="36" font-family="Arial, Helvetica, sans-serif" font-size="8" fill="#64748b" text-anchor="middle" font-weight="normal" dominant-baseline="middle">GND</text></g></g><g class="comp" data-id="c_4v2oe1f"><g transform="translate(-540,400) rotate(180,60,50)"><rect x="20" y="0" width="100" height="100" rx="6" fill="#f8fafc" stroke="#1f2937" stroke-width="2"/><line x1="0" y1="20" x2="20" y2="20" stroke="#1f2937" stroke-width="2"/><text x="25" y="20" font-family="Arial, Helvetica, sans-serif" font-size="9" fill="#1f2937" text-anchor="end" font-weight="normal" dominant-baseline="middle" transform="rotate(180 25 20)">GND</text><line x1="0" y1="40" x2="20" y2="40" stroke="#1f2937" stroke-width="2"/><text x="25" y="40" font-family="Arial, Helvetica, sans-serif" font-size="9" fill="#1f2937" text-anchor="end" font-weight="normal" dominant-baseline="middle" transform="rotate(180 25 40)">VCC</text><line x1="0" y1="60" x2="20" y2="60" stroke="#1f2937" stroke-width="2"/><text x="25" y="60" font-family="Arial, Helvetica, sans-serif" font-size="9" fill="#1f2937" text-anchor="end" font-weight="normal" dominant-baseline="middle" transform="rotate(180 25 60)">SCL</text><line x1="0" y1="80" x2="20" y2="80" stroke="#1f2937" stroke-width="2"/><text x="25" y="80" font-family="Arial, Helvetica, sans-serif" font-size="9" fill="#1f2937" text-anchor="end" font-weight="normal" dominant-baseline="middle" transform="rotate(180 25 80)">SDA</text><text x="82" y="12" font-family="Arial, Helvetica, sans-serif" font-size="10" fill="#1f2937" text-anchor="middle" font-weight="bold" dominant-baseline="middle" transform="rotate(180 82 12)">OLED I²C</text><rect x="54" y="26" width="58" height="36" rx="2" fill="#0f172a"/><line x1="60" y1="33" x2="96" y2="33" stroke="#7dd3fc" stroke-width="2"/><line x1="60" y1="45" x2="104" y2="45" stroke="#7dd3fc" stroke-width="2"/><line x1="60" y1="53" x2="88" y2="53" stroke="#7dd3fc" stroke-width="2"/></g><text x="-480" y="386" font-family="Arial, Helvetica, sans-serif" font-size="11" text-anchor="middle" dominant-baseline="middle" fill="#0f172a"><tspan font-weight="bold">OLED1</tspan><tspan fill="#64748b" font-size="10">  blue, addr 0x3C</tspan></text></g><g class="comp" data-id="c_ukrm2jx"><g transform="translate(-150,500) rotate(180,20,20)"><line x1="20" y1="40" x2="20" y2="16" stroke="#1f2937" stroke-width="2"/><line x1="6" y1="16" x2="34" y2="16" stroke="#dc2626" stroke-width="2.5"/><text x="20" y="7" font-family="Arial, Helvetica, sans-serif" font-size="10" fill="#dc2626" text-anchor="middle" font-weight="bold" dominant-baseline="middle" transform="rotate(180 20 7)">3V3</text></g></g><g class="comp" data-id="c_bp3hhlz"><g transform="translate(-180,530)"><line x1="20" y1="0" x2="20" y2="16" stroke="#1f2937" stroke-width="2"/><line x1="6" y1="16" x2="34" y2="16" stroke="#1f2937" stroke-width="2"/><line x1="11" y1="22" x2="29" y2="22" stroke="#1f2937" stroke-width="2"/><line x1="16" y1="28" x2="24" y2="28" stroke="#1f2937" stroke-width="2"/><text x="20" y="36" font-family="Arial, Helvetica, sans-serif" font-size="8" fill="#64748b" text-anchor="middle" font-weight="normal" dominant-baseline="middle">GND</text></g></g></g><g class="labels"></g><g class="pins"></g><g class="handles"></g><g><rect x="-610" y="790" width="1420" height="34" fill="#fff" stroke="#1f2937" stroke-width="1"/><text x="-602" y="804" font-family="Arial, Helvetica, sans-serif" font-size="12" font-weight="bold" fill="#0f172a">Challenge _4</text><text x="-602" y="819" font-family="Arial, Helvetica, sans-serif" font-size="10" fill="#334155">ESP32-S2-DevKitC-1 · IoT Circuit Studio · 2026-09-28</text></g></svg>